<?xml version="1.0" standalone="no"?><!DOCTYPE svg PUBLIC "-//W3C//DTD SVG 1.1//EN"
    "http://www.w3.org/Graphics/SVG/1.1/DTD/svg11.dtd">
<svg t="1573809199012" class="icon" viewBox="0 0 1024 1024" version="1.1" xmlns="http://www.w3.org/2000/svg" p-id="1194"
     xmlns:xlink="http://www.w3.org/1999/xlink" width="200" height="200">
    <defs>
        <style type="text/css"></style>
    </defs>
    <path
        d="M588.29605827 512l386.63543046-460.8694331c6.48074626-7.65906378 1.03102783-19.2949491-8.98467096-19.29494909h-117.53717085c-6.92261532 0-13.55065127 3.09308345-18.11663159 8.3955122L511.41084125 420.38581419 192.52866718 40.23113001c-4.41869063-5.30242877-11.04672658-8.3955122-18.1166316-8.3955122H56.87486474c-10.01569877 0-15.46541722 11.63588534-8.98467098 19.29494909L434.52562421 512 47.89019376 972.8694331c-6.48074626 7.65906378-1.03102783 19.2949491 8.98467098 19.29494909h117.53717084c6.92261532 0 13.55065127-3.09308345 18.1166316-8.3955122l318.88217407-380.15468418 318.88217408 380.15468418c4.41869063 5.30242877 11.04672658 8.3955122 18.11663159 8.3955122h117.53717085c10.01569877 0 15.46541722-11.63588534 8.98467096-19.29494909L588.29605827 512z"
        p-id="1195"></path>
</svg>
